<?xml version="1.0" encoding="utf-8"?>
<!DOCTYPE svg PUBLIC "-//W3C//DTD SVG 1.1//EN" "http://www.w3.org/Graphics/SVG/1.1/DTD/svg11.dtd">
<svg version="1.1" id="Layer_1" xmlns="http://www.w3.org/2000/svg" xmlns:xlink="http://www.w3.org/1999/xlink" x="0px" y="0px"
	 viewBox="2 247.5 591.3 346.7" enable-background="new 2 247.5 591.3 346.7" xml:space="preserve">
<g>
	<path fill="#FFFFFF" d="M55,251.8L53.8,266H36.3v68.2H19.7v-68H2v-14.4H55z"/>
	<path fill="#FFFFFF" d="M107,334.2H91.9v-39c0-7.3-1.8-10.1-6.7-10.1c-3.5,0-6.3,1.4-10.2,4.9v44.2H59.7v-85.3l15.2-1.2v32.1
		c4.9-4.7,10.2-6.9,16.6-6.9c5.7,0,10.6,2.4,13.2,6.5c1.8,3,2.4,6.3,2.4,12.4C107,291.8,107,334.2,107,334.2z"/>
	<path fill="#FFFFFF" d="M168.1,308.6h-34.5c0.2,10.2,4.5,15.2,13.4,15.2c7.9,0,13-3.2,15.8-4.7l4.7,11c-3.4,2.2-11,6.1-22.1,6.1
		c-19.1,0-26.8-13.2-26.8-31.1c0-19.3,9.3-32.1,26.2-32.1c15.8,0,23.5,10.8,23.5,32.7C168.3,306.8,168.1,308,168.1,308.6z
		 M152.8,297.6c0-9.3-2.6-13.6-8.7-13.6s-9.5,4.7-10.1,13.6H152.8z"/>
	<path fill="#FFFFFF" d="M292.3,251.8l-16.8,82.4h-17.9l-13.4-61.5l-13.4,61.5h-17.9l-17-82.4l17.3-1.2l9.5,60.7l12-59.5h18.3
		l12,59.5l9.5-60.7L292.3,251.8z"/>
	<path fill="#FFFFFF" d="M319.1,336.2c-16.4,0-26.2-11.8-26.2-31.7c0-9.9,2.4-17.3,6.9-22.9c5.1-6.1,11-8.7,19.7-8.7
		c15.8,0,25.6,12,25.6,31.5C345.1,324,335.1,336.2,319.1,336.2z M318.9,284.9c-6.9,0-9.7,5.7-9.7,19.5c0,14,3,19.5,9.9,19.5
		c7.1,0,10.1-5.7,10.1-19.5C329,290.5,326,284.9,318.9,284.9z"/>
	<path fill="#FFFFFF" d="M384.8,287.7c-1-0.6-3-1.2-5.1-1.2c-2.6,0-5.9,3-8.5,5.7v42H356v-42.4c0-4.1-0.8-11.4-2.4-16.4l14.6-1.8
		c1.2,2,1.8,5.1,2,7.1c3.7-4.5,7.5-7.9,12-7.9c3.4,0,5.7,1.2,6.9,3L384.8,287.7z"/>
	<path fill="#FFFFFF" d="M409.2,334.2H394v-85.3l15.2-1.2V334.2z"/>
	<path fill="#FFFFFF" d="M470.1,334.2h-12.8l-1.2-3.7c-4.9,4.1-10.8,5.7-15.8,5.7c-12.4,0-19.5-11.2-19.5-30.6
		c0-11.8,2.2-19.7,7.1-25.6c3.9-4.7,9.1-7.3,15.2-7.3c4.1,0,7.5,1,11.8,3.4v-27.2l15.2-1.2V334.2z M454.7,287.1
		c-3-1.4-5.7-2.2-8.7-2.2c-7.5,0-10.2,6.7-10.2,19.7c0,14,2.8,19.7,9.3,19.7c3.7,0,6.9-1.4,9.7-4.1V287.1z"/>
	<path fill="#FFFFFF" d="M516.2,266.2c-5.1,0-9.3-3.9-9.3-9.3c0-5.1,4.1-9.5,9.3-9.5c5.3,0,9.3,4.1,9.3,9.5
		C525.3,262.3,521.4,266.2,516.2,266.2z M523.7,334.2h-15.2v-59.3h15.2V334.2z"/>
	<path fill="#FFFFFF" d="M585.6,334.2h-15.2v-39c0-7.3-1.8-10.1-6.7-10.1c-3.5,0-6.3,1.4-10.2,4.9v44.2h-15.4v-42.4
		c0-4.1-0.8-11.4-2.4-16.4l14.6-1.8c1.2,2,1.8,4.9,2,6.9c5.5-5.5,11.2-7.9,17.5-7.9c5.7,0,10.6,2.4,13.2,6.5c1.8,3,2.4,6.3,2.4,12.4
		v42.6H585.6z"/>
	<path fill="#FFFFFF" d="M142.5,588.7H9.5c0-28,2-46.9,10.2-61.7c9.5-17.3,17.7-25.2,52.6-52.2c22.3-17.1,29.6-29,29.6-47.3
		c0-17.7-9.9-27.6-27-27.6c-23.7,0-30.6,22.3-35.9,34.5L6.1,421.7c11.2-35.1,30.6-58.5,72.7-58.5c39.4,0,62.5,23.1,62.5,62.7
		c0,21.1-6.3,38-19.3,52.6c-9.9,10.8-10.8,11.2-43,36.1c-17.1,13.2-23.1,23.3-23.3,37.1h87.1v37.1H142.5z"/>
	<path fill="#FFFFFF" d="M235.7,594.2c-49.7,0-76.9-40-76.9-113.7c0-75.3,25.2-117.3,81.8-117.3c52.8,0,74.3,44.9,74.3,112.7
		C315,553.4,295.1,594.2,235.7,594.2z M237.5,398.5c-24.6,0-36.1,25.6-36.1,80.8c0,55.6,10.8,79.8,35.9,79.8
		c26.2,0,35.5-22.7,35.5-73.9C272.6,425.1,266.1,398.5,237.5,398.5z"/>
	<path fill="#FFFFFF" d="M444.1,588.7H340.2v-30.6h32.9v-138l-30.9,16.4l-15.8-26.6l58.5-41h29.6v189.2h29.6V588.7z"/>
	<path fill="#FFFFFF" d="M522.3,594.2c-45.3,0-70-34.1-70-97c0-81.4,37.8-134,96.6-134c16.2,0,29.2,4.5,34.9,9.3l-9.3,31.1
		c-3.9-1.4-12.8-5.9-25-5.9c-27.6,0-46.7,19.1-54.8,54.2c11.8-12.2,22.3-17.1,38.4-17.1c43.4,0,60.1,38.4,60.1,76.5
		C593.3,561.1,571,594.2,522.3,594.2z M524.9,469.4c-18.3,0-29.2,16.2-29.2,44c0,28.6,10.2,44.7,28,44.7c18.7,0,30-16.8,30-45.3
		C553.5,484.4,543.4,469.4,524.9,469.4z"/>
</g>
</svg>
